<svg xmlns="http://www.w3.org/2000/svg" width="460" height="120" viewBox="0 0 460 120" role="img" aria-label="Grandriver Coatings">
  <!-- Emblem (white, for dark backgrounds) -->
  <g transform="translate(8,12)">
    <g fill="none" stroke="#fff" stroke-width="12" stroke-linecap="round">
      <path d="M84 34 A30 30 0 1 1 84 66"/>
    </g>
    <rect x="56" y="44" width="32" height="12" rx="6" fill="#fff"/>
    <path d="M48 84 q10 12 26 9 q16 -3 32 3" fill="none" stroke="#ED5A24" stroke-width="7" stroke-linecap="round"/>
    <rect x="54" y="79" width="6" height="6" rx="1.4" fill="#fff" transform="rotate(18 57 82)"/>
    <rect x="68" y="86" width="5" height="5" rx="1.2" fill="#2E63D6" transform="rotate(-12 70 88)"/>
    <rect x="84" y="83" width="6" height="6" rx="1.4" fill="#ED5A24" transform="rotate(24 87 86)"/>
    <rect x="98" y="88" width="5" height="5" rx="1.2" fill="#fff" transform="rotate(-20 100 90)"/>
  </g>
  <!-- Wordmark -->
  <g transform="translate(132,0)" fill="#fff" font-family="Archivo, Arial, sans-serif">
    <text x="0" y="58" font-size="36" font-weight="900" letter-spacing="-0.5">GRANDRIVER</text>
    <text x="2" y="86" font-size="15.5" font-weight="600" letter-spacing="9" fill="#8C99A8">COATINGS</text>
  </g>
</svg>
