<svg xmlns="http://www.w3.org/2000/svg" width="500" height="132" viewBox="0 0 500 132" role="img" aria-label="Grandriver Coatings">
  <defs>
    <linearGradient id="ringF" x1="0" y1="0" x2="1" y2="1">
      <stop offset="0" stop-color="#2E63D6"/>
      <stop offset="1" stop-color="#1C49A6"/>
    </linearGradient>
  </defs>
  <!-- Emblem (full colour, for light backgrounds) -->
  <g transform="translate(8,14)">
    <g fill="none" stroke="url(#ringF)" stroke-width="13" stroke-linecap="round">
      <path d="M88 30 A36 36 0 1 1 88 70"/>
    </g>
    <rect x="52" y="42" width="40" height="13" rx="6.5" fill="#0B1A2B"/>
    <path d="M40 92 q14 15 32 11 q20 -4 38 4" fill="none" stroke="#ED5A24" stroke-width="8" stroke-linecap="round"/>
    <rect x="46" y="86" width="7" height="7" rx="1.6" fill="#0B1A2B" transform="rotate(18 49 89)"/>
    <rect x="62" y="94" width="6" height="6" rx="1.4" fill="#2E63D6" transform="rotate(-12 65 97)"/>
    <rect x="80" y="90" width="7" height="7" rx="1.6" fill="#ED5A24" transform="rotate(24 83 93)"/>
    <rect x="98" y="95" width="6" height="6" rx="1.4" fill="#C7CDD4" transform="rotate(-20 101 98)"/>
  </g>
  <!-- Wordmark -->
  <g transform="translate(172,0)" font-family="Archivo, Arial, sans-serif">
    <text x="0" y="66" font-size="42" font-weight="900" letter-spacing="-0.5" fill="#0B1A2B">GRANDRIVER</text>
    <text x="3" y="97" font-size="16.5" font-weight="600" letter-spacing="10.5" fill="#5b6470">COATINGS</text>
  </g>
</svg>
